<?xml version="1.0" encoding="UTF-8" standalone="no"?>
<svg
   width="48.000999"
   height="48"
   viewBox="0 0 48.000999 48"
   version="1.1"
   id="svg1"
   xmlns:xlink="http://www.w3.org/1999/xlink"
   xmlns="http://www.w3.org/2000/svg"
   xmlns:svg="http://www.w3.org/2000/svg">
  <g
     id="Group">
    <g
       id="Windows">
      <rect
         id="Rectangle"
         width="22.966999"
         height="22.966999"
         style="fill:#00bcfe;fill-opacity:1"
         x="0"
         y="0" />
      <rect
         id="Rectangle 2"
         width="22.966999"
         height="22.966999"
         transform="translate(25.034)"
         style="fill:#01beff;fill-opacity:1"
         x="0"
         y="0" />
      <rect
         id="Rectangle 3"
         width="22.966999"
         height="22.966999"
         transform="translate(0.034,25.033)"
         style="fill:#01bfff;fill-opacity:1"
         x="0"
         y="0" />
    </g>
    <g
       id="Refresh Icon"
       transform="translate(24,24)">
      <rect
         id="Background"
         width="24"
         height="24"
         x="0"
         y="0"
         style="display:none" />
      <g
         clip-path="url(#clip_path_2)"
         id="g1"
         style="fill:#01beff;fill-opacity:1">
        <path
           id="Shape"
           d="m 9.50964,0 c -3.85402,0 -7,3.14598 -7,7 v 4.5859 L 1.71667,10.793 C 1.52816,10.5992 1.26923,10.49 0.998894,10.4902 c -0.406745,5e-4 -0.772668,0.2473 -0.925539,0.6243 -0.1528712,0.3769 -0.0622344,0.8088 0.22925,1.0925 l 2.411135,2.4112 c 0.18963,0.2496 0.48534,0.3959 0.79882,0.3951 0.31349,-8e-4 0.60847,-0.1485 0.79688,-0.399 L 6.71667,12.207 C 6.9779,11.9562 7.08314,11.5838 6.99178,11.2333 6.90042,10.8829 6.62675,10.6092 6.27631,10.5179 5.92587,10.4265 5.55343,10.5317 5.30261,10.793 L 4.50964,11.5859 V 7 c 0,-2.77298 2.22701,-5 5,-5 1.09236,0 2.09006,0.34988 2.91506,0.94434 0.2895,0.21571 0.6727,0.25868 1.0028,0.11241 0.33,-0.14627 0.5556,-0.45907 0.5903,-0.81842 C 14.0524,1.87898 13.8907,1.52887 13.5946,1.32227 12.4475,0.495717 11.0332,0 9.50964,0 Z M 15.495,3.98633 c -0.3079,0.0047 -0.5964,0.15095 -0.7822,0.39648 l -2.4102,2.41016 c -0.2612,0.25082 -0.3665,0.62326 -0.2751,0.9737 0.0914,0.35044 0.365,0.62411 0.7155,0.71546 0.3504,0.09136 0.7228,-0.01386 0.9737,-0.2751 L 14.5096,7.41406 V 12 c 0,2.773 -2.227,5 -4.99996,5 C 8.41723,17 7.41955,16.6501 6.5946,16.0557 6.30512,15.8399 5.92185,15.797 5.5918,15.9433 5.26174,16.0895 5.03614,16.4023 5.00151,16.7617 4.96689,17.121 5.12862,17.4711 5.42467,17.6777 6.57172,18.5043 7.98604,19 9.50964,19 13.3637,19 16.5096,15.854 16.5096,12 V 7.41406 l 0.793,0.79297 c 0.2508,0.26123 0.6233,0.36646 0.9737,0.27511 0.3504,-0.09136 0.6241,-0.36503 0.7155,-0.71547 0.0913,-0.35043 -0.0139,-0.72288 -0.2751,-0.9737 L 16.3026,4.37891 C 16.1106,4.12775 15.8111,3.98218 15.495,3.98633 Z"
           transform="translate(2.49,2.5)"
           style="fill:#01beff;fill-opacity:1" />
      </g>
    </g>
  </g>
</svg>
